<svg width="55" height="36" viewBox="0 0 55 36" fill="none" xmlns="http://www.w3.org/2000/svg">
<g clip-path="url(#clip0_813_6703)">
<path d="M0 7.45186C0 6.81736 0.334695 6.22971 0.880929 5.90517L8.09406 1.61945C9.29608 0.905256 10.8197 1.76986 10.8197 3.16617V32.8338C10.8197 34.2302 9.29608 35.0947 8.09406 34.3805L0.880933 30.0948C0.334695 29.7703 0 29.1826 0 28.5481V7.45186Z" fill="#C61F1F"/>
<path d="M15.3276 7.62471C15.3276 6.89999 15.763 6.24596 16.4324 5.96525L28.1537 1.04927C29.3421 0.550833 30.6555 1.422 30.6555 2.70874V33.2913C30.6555 34.578 29.3421 35.4492 28.1537 34.9507L16.4324 30.0348C15.763 29.754 15.3276 29.1 15.3276 28.3753V7.62471Z" fill="#C61F1F"/>
<path d="M35.1641 7.73667C35.1641 6.95669 35.6673 6.26549 36.4105 6.02465L52.6401 0.764888C53.805 0.387312 55.0001 1.25422 55.0001 2.47691V33.5231C55.0001 34.7458 53.805 35.6127 52.6401 35.2351L36.4105 29.9754C35.6673 29.7345 35.1641 29.0433 35.1641 28.2633V7.73667Z" fill="#C61F1F"/>
</g>
<defs>
<clipPath id="clip0_813_6703">
<rect width="55" height="36" fill="white"/>
</clipPath>
</defs>
</svg>
